<?xml version="1.0" encoding="UTF-8"?><svg id="Layer_1" xmlns="http://www.w3.org/2000/svg" xmlns:xlink="http://www.w3.org/1999/xlink" viewBox="0 0 376.88 376.78"><defs><style>.cls-1{fill:url(#radial-gradient-2);}.cls-2{fill:url(#radial-gradient);}.cls-3{fill:#fff;}</style><radialGradient id="radial-gradient" cx="-182.28" cy="94.29" fx="-182.28" fy="94.29" r="24.5" gradientTransform="translate(1437.2 -2372.68) rotate(-90) scale(15.24 -14.18)" gradientUnits="userSpaceOnUse"><stop offset="0" stop-color="#fd5"/><stop offset=".1" stop-color="#fd5"/><stop offset=".5" stop-color="#ff543e"/><stop offset="1" stop-color="#c837ab"/></radialGradient><radialGradient id="radial-gradient-2" cx="-185.14" cy="228.8" fx="-185.14" fy="228.8" r="24.5" gradientTransform="translate(-6118.17 2526.07) rotate(78.68) scale(6.81 -28.09)" gradientUnits="userSpaceOnUse"><stop offset="0" stop-color="#3771c8"/><stop offset=".13" stop-color="#3771c8"/><stop offset="1" stop-color="#60f" stop-opacity="0"/></radialGradient></defs><path id="path24" class="cls-2" d="M188.5,0c-78.67,0-101.68.08-106.15.45-16.14,1.34-26.19,3.88-37.14,9.33-8.43,4.19-15.09,9.04-21.65,15.85C11.6,38.05,4.36,53.32,1.73,71.47.46,80.28.09,82.07.01,127.08-.02,142.09.01,161.83.01,188.31c0,78.61.09,101.59.46,106.06,1.3,15.71,3.77,25.59,8.99,36.41,9.97,20.7,29.01,36.23,51.45,42.03,7.77,2,16.35,3.1,27.36,3.62,4.67.2,52.23.35,99.83.35s95.19-.06,99.74-.29c12.75-.6,20.16-1.59,28.35-3.71,22.58-5.83,41.27-21.13,51.45-42.12,5.12-10.55,7.71-20.81,8.88-35.7.26-3.25.36-55.01.36-106.69s-.12-103.36-.37-106.61c-1.19-15.13-3.78-25.3-9.06-36.06-4.33-8.8-9.14-15.38-16.13-22.1-12.47-11.91-27.71-19.15-45.88-21.77-8.8-1.27-10.56-1.65-55.6-1.73h-61.33Z"/><path id="path26" class="cls-1" d="M188.5,0c-78.67,0-101.68.08-106.15.45-16.14,1.34-26.19,3.88-37.14,9.33-8.43,4.19-15.09,9.04-21.65,15.85C11.6,38.05,4.36,53.32,1.73,71.47.46,80.28.09,82.07.01,127.08-.02,142.09.01,161.83.01,188.31c0,78.61.09,101.59.46,106.06,1.3,15.71,3.77,25.59,8.99,36.41,9.97,20.7,29.01,36.23,51.45,42.03,7.77,2,16.35,3.1,27.36,3.62,4.67.2,52.23.35,99.83.35s95.19-.06,99.74-.29c12.75-.6,20.16-1.59,28.35-3.71,22.58-5.83,41.27-21.13,51.45-42.12,5.12-10.55,7.71-20.81,8.88-35.7.26-3.25.36-55.01.36-106.69s-.12-103.36-.37-106.61c-1.19-15.13-3.78-25.3-9.06-36.06-4.33-8.8-9.14-15.38-16.13-22.1-12.47-11.91-27.71-19.15-45.88-21.77-8.8-1.27-10.56-1.65-55.6-1.73h-61.33Z"/><path id="path28" class="cls-3" d="M188.41,49.27c-37.79,0-42.53.17-57.37.84-14.81.68-24.92,3.02-33.77,6.46-9.15,3.55-16.91,8.31-24.65,16.04-7.74,7.73-12.49,15.5-16.06,24.64-3.45,8.85-5.8,18.96-6.46,33.77-.66,14.84-.84,19.59-.84,57.37s.17,42.51.84,57.35c.68,14.81,3.03,24.92,6.46,33.77,3.56,9.15,8.31,16.91,16.05,24.65,7.73,7.74,15.49,12.5,24.64,16.06,8.85,3.44,18.97,5.79,33.77,6.46,14.84.68,19.58.84,57.36.84s42.52-.17,57.36-.84c14.81-.68,24.93-3.02,33.79-6.46,9.15-3.55,16.9-8.32,24.63-16.06,7.74-7.73,12.49-15.5,16.06-24.64,3.42-8.85,5.77-18.96,6.46-33.77.67-14.84.84-19.57.84-57.36s-.17-42.53-.84-57.37c-.7-14.81-3.04-24.92-6.46-33.77-3.57-9.15-8.32-16.91-16.06-24.65-7.74-7.74-15.48-12.49-24.64-16.04-8.87-3.44-18.99-5.79-33.8-6.46-14.84-.68-19.57-.84-57.36-.84h.04ZM175.93,74.35c3.7,0,7.84,0,12.48,0,37.15,0,41.55.13,56.22.8,13.57.62,20.93,2.89,25.83,4.79,6.49,2.52,11.12,5.54,15.99,10.41,4.87,4.87,7.88,9.51,10.41,16,1.9,4.9,4.17,12.26,4.79,25.83.67,14.67.81,19.07.81,56.2s-.14,41.54-.81,56.2c-.62,13.57-2.89,20.93-4.79,25.83-2.52,6.49-5.54,11.12-10.41,15.98-4.87,4.87-9.49,7.88-15.99,10.41-4.9,1.91-12.27,4.17-25.83,4.79-14.67.67-19.07.81-56.22.81s-41.55-.14-56.22-.81c-13.57-.63-20.93-2.89-25.83-4.8-6.49-2.52-11.13-5.54-16-10.41-4.87-4.87-7.88-9.5-10.41-15.99-1.9-4.9-4.17-12.26-4.79-25.83-.67-14.67-.8-19.07-.8-56.23s.13-41.54.8-56.2c.62-13.57,2.89-20.93,4.79-25.83,2.52-6.49,5.54-11.13,10.41-16s9.51-7.88,16-10.41c4.9-1.91,12.27-4.17,25.83-4.8,12.83-.58,17.81-.75,43.74-.78v.03ZM262.68,97.45c-9.22,0-16.7,7.47-16.7,16.69s7.48,16.7,16.7,16.7,16.7-7.48,16.7-16.7-7.48-16.7-16.7-16.7h0ZM188.41,116.96c-39.46,0-71.45,31.99-71.45,71.45s31.99,71.43,71.45,71.43,71.44-31.98,71.44-71.43-31.98-71.45-71.44-71.45h0ZM188.41,142.03c25.61,0,46.38,20.76,46.38,46.38s-20.77,46.38-46.38,46.38-46.38-20.77-46.38-46.38,20.76-46.38,46.38-46.38h0Z"/></svg>